<svg width="7" height="12" viewBox="0 0 7 12" fill="none" xmlns="http://www.w3.org/2000/svg">
    <path d="M5.04636 0.677246C4.35127 0.677246 3.68465 0.96149 3.19314 1.46745C2.70164 1.97341 2.42552 2.65963 2.42552 3.37516V4.87725H1.02301C0.952592 4.87725 0.895508 4.93601 0.895508 5.0085V6.99183C0.895508 7.06432 0.952592 7.12308 1.02301 7.12308H2.42552V11.1918C2.42552 11.2643 2.4826 11.3231 2.55302 11.3231H4.47969C4.55011 11.3231 4.60719 11.2643 4.60719 11.1918V7.12308H6.02212C6.08063 7.12308 6.13163 7.08209 6.14582 7.02366L6.62749 5.04033C6.6476 4.95749 6.58674 4.87725 6.50379 4.87725H4.60719V3.37516C4.60719 3.25526 4.65346 3.14027 4.73582 3.05549C4.81818 2.97071 4.92989 2.92308 5.04636 2.92308H6.5197C6.59012 2.92308 6.6472 2.86432 6.6472 2.79183V0.808496C6.6472 0.736009 6.59012 0.677246 6.5197 0.677246H5.04636Z" fill="black"/>
</svg>