<svg width="11" height="12" viewBox="0 0 11 12" fill="none" xmlns="http://www.w3.org/2000/svg">
    <path d="M5.3993 4.10415C4.38217 4.10415 3.55762 4.95295 3.55762 5.99999C3.55762 7.04703 4.38217 7.89582 5.3993 7.89582C6.41643 7.89582 7.24098 7.04703 7.24098 5.99999C7.24098 4.95295 6.41643 4.10415 5.3993 4.10415Z" fill="black"/>
    <path fill-rule="evenodd" clip-rule="evenodd" d="M2.43536 0.797509C4.3893 0.572705 6.40931 0.572705 8.36326 0.797509C9.43902 0.921277 10.3067 1.79381 10.433 2.9051C10.6666 4.96135 10.6666 7.03862 10.433 9.09488C10.3067 10.2062 9.43902 11.0787 8.36326 11.2025C6.40931 11.4273 4.3893 11.4273 2.43536 11.2025C1.35959 11.0787 0.491912 10.2062 0.36565 9.09488C0.132023 7.03862 0.132023 4.96135 0.36565 2.9051C0.491912 1.79381 1.35959 0.921277 2.43536 0.797509ZM8.23265 2.49999C7.91968 2.49999 7.66598 2.76115 7.66598 3.08332C7.66598 3.40549 7.91968 3.66665 8.23265 3.66665C8.54561 3.66665 8.79932 3.40549 8.79932 3.08332C8.79932 2.76115 8.54561 2.49999 8.23265 2.49999ZM2.70762 5.99999C2.70762 4.4697 3.91273 3.22915 5.3993 3.22915C6.88587 3.22915 8.09098 4.4697 8.09098 5.99999C8.09098 7.53027 6.88587 8.77082 5.3993 8.77082C3.91273 8.77082 2.70762 7.53027 2.70762 5.99999Z" fill="black"/>
</svg>