<svg width="17" height="16" viewBox="0 0 17 16" fill="none" xmlns="http://www.w3.org/2000/svg">
    <path d="M4.13495 1.24414C3.35065 1.24414 2.71484 1.87532 2.71484 2.65393C2.71484 3.43254 3.35065 4.06372 4.13495 4.06372C4.91925 4.06372 5.55506 3.43254 5.55506 2.65393C5.55506 1.87532 4.91925 1.24414 4.13495 1.24414Z" fill="black"/>
    <path d="M2.79838 5.22472C2.75224 5.22472 2.71484 5.26185 2.71484 5.30765V13.9322C2.71484 13.978 2.75224 14.0152 2.79838 14.0152H5.47152C5.51765 14.0152 5.55506 13.978 5.55506 13.9322V5.30765C5.55506 5.26185 5.51765 5.22472 5.47152 5.22472H2.79838Z" fill="black"/>
    <path d="M7.14223 5.22472C7.0961 5.22472 7.0587 5.26185 7.0587 5.30765V13.9322C7.0587 13.978 7.0961 14.0152 7.14223 14.0152H9.81537C9.86151 14.0152 9.89891 13.978 9.89891 13.9322V9.28823C9.89891 8.95832 10.0309 8.64193 10.2659 8.40864C10.5009 8.17536 10.8196 8.0443 11.1519 8.0443C11.4843 8.0443 11.803 8.17536 12.038 8.40864C12.273 8.64193 12.405 8.95832 12.405 9.28823V13.9322C12.405 13.978 12.4424 14.0152 12.4885 14.0152H15.1617C15.2078 14.0152 15.2452 13.978 15.2452 13.9322V8.21364C15.2452 6.60366 13.8347 5.34414 12.2211 5.48976C11.7235 5.53467 11.2314 5.65748 10.772 5.85296L9.89891 6.22442V5.30765C9.89891 5.26185 9.86151 5.22472 9.81537 5.22472H7.14223Z" fill="black"/>
</svg>