<svg width="20" height="24" viewBox="0 0 25 24" fill="none" xmlns="http://www.w3.org/2000/svg">
    <g clip-path="url(#clip0_101_188)">
        <path d="M18.9572 16.617L23.2332 20.899L21.8205 22.314L17.5455 18.031C15.9548 19.3082 13.9763 20.0029 11.9376 20C6.97761 20 2.95215 15.968 2.95215 11C2.95215 6.032 6.97761 2 11.9376 2C16.8975 2 20.923 6.032 20.923 11C20.9259 13.042 20.2323 15.0237 18.9572 16.617ZM16.9544 15.875C18.2215 14.5699 18.9291 12.8204 18.9262 11C18.9262 7.132 15.7983 4 11.9376 4C8.07583 4 4.94891 7.132 4.94891 11C4.94891 14.867 8.07583 18 11.9376 18C13.755 18.0029 15.5017 17.2941 16.8047 16.025L16.9544 15.875Z"
              fill="#03053D"/>
    </g>
    <defs>
        <clipPath id="clip0_101_188">
            <rect x="0.955078" width="23.9611" height="24" rx="10" fill="white"/>
        </clipPath>
    </defs>
</svg>
