<svg width="12" height="10" viewBox="0 0 12 10" fill="none" xmlns="http://www.w3.org/2000/svg">
    <path d="M11.1586 1.63272C11.1915 1.5856 11.143 1.52477 11.0904 1.54573C10.7172 1.69467 10.327 1.79516 9.92911 1.84468C10.3722 1.57219 10.7141 1.15739 10.9037 0.666307C10.923 0.616281 10.8699 0.571605 10.8242 0.59763C10.4124 0.831744 9.96823 1.00032 9.50688 1.09741C9.48757 1.10148 9.46766 1.09471 9.4541 1.07998C9.10788 0.703922 8.65215 0.453535 8.15532 0.36701C7.64806 0.278667 7.12667 0.366139 6.6729 0.615707C6.21914 0.865275 5.85868 1.26282 5.64805 1.746C5.44779 2.20541 5.39375 2.71753 5.49253 3.20935C5.50019 3.24751 5.47117 3.28354 5.43339 3.28112C4.53575 3.22373 3.65872 2.97796 2.85631 2.5586C2.05594 2.14031 1.34719 1.5584 0.773222 0.848752C0.747749 0.817258 0.69947 0.821334 0.68091 0.857589C0.502313 1.20646 0.408804 1.59531 0.409058 1.99051C0.408333 2.3839 0.502115 2.77137 0.682054 3.11843C0.861993 3.46548 1.12251 3.76134 1.4404 3.97968C1.10327 3.97024 0.772717 3.88444 0.472099 3.72889C0.433357 3.70884 0.386886 3.73739 0.388901 3.78197C0.412343 4.30069 0.597335 4.82145 0.917539 5.22099C1.25829 5.64617 1.73124 5.93714 2.2564 6.04468C2.05424 6.10801 1.84436 6.1414 1.63306 6.14385C1.51806 6.14246 1.40329 6.13373 1.2894 6.1177C1.24717 6.11176 1.21269 6.15305 1.22747 6.1942C1.38411 6.63023 1.66083 7.01071 2.02468 7.28844C2.41367 7.58536 2.8829 7.75008 3.36707 7.75968C2.54948 8.42192 1.54006 8.78335 0.499725 8.78635C0.392826 8.78671 0.285975 8.78314 0.179376 8.77566C0.119304 8.77145 0.0916766 8.85384 0.143456 8.88547C1.1571 9.5047 2.31567 9.832 3.49741 9.83051C4.3699 9.83984 5.23546 9.67011 6.04352 9.33123C6.85158 8.99235 7.58594 8.49111 8.20371 7.8568C8.82149 7.22249 9.31028 6.46782 9.64155 5.63688C9.97283 4.80593 10.1399 3.91535 10.1331 3.01718V2.73728C10.1331 2.71886 10.1416 2.70154 10.1559 2.69045C10.5402 2.3917 10.8782 2.03502 11.1586 1.63272Z" fill="black"/>
</svg>